<?xml version="1.0" standalone="no"?>
<!DOCTYPE svg PUBLIC "-//W3C//DTD SVG 20010904//EN"
 "http://www.w3.org/TR/2001/REC-SVG-20010904/DTD/svg10.dtd">
<svg version="1.0" xmlns="http://www.w3.org/2000/svg"
 width="512.000000pt" height="512.000000pt" viewBox="0 0 512.000000 512.000000"
 preserveAspectRatio="xMidYMid meet">
<metadata>
Created by potrace 1.11, written by Peter Selinger 2001-2013
</metadata>
<g transform="translate(0.000000,512.000000) scale(0.100000,-0.100000)"
fill="#000000" stroke="none">
<path d="M0 2560 l0 -2560 2560 0 2560 0 0 2560 0 2560 -2560 0 -2560 0 0
-2560z m4259 1612 c85 -40 135 -122 135 -222 0 -143 -106 -250 -246 -250 -184
1 -305 199 -220 360 33 64 85 108 149 126 56 16 132 10 182 -14z m-3129 -704
c12 -46 28 -115 34 -155 l11 -72 52 65 c196 238 469 307 738 185 89 -41 181
-133 226 -227 l33 -70 60 79 c171 228 418 322 672 257 232 -60 352 -236 396
-581 9 -74 13 -276 13 -709 l0 -605 -200 0 -200 0 -5 645 c-5 639 -6 646 -28
713 -51 152 -176 212 -325 157 -79 -30 -156 -105 -247 -241 l-80 -120 0 -579
0 -580 -200 0 -200 0 0 593 c0 694 -5 754 -73 853 -59 88 -168 116 -281 74
-84 -32 -183 -133 -269 -275 l-67 -109 0 -568 0 -568 -199 0 -199 0 -5 773
c-5 804 -6 820 -50 1004 l-15 63 36 9 c21 5 82 19 137 31 55 12 123 28 150 35
28 6 53 11 56 9 4 -2 17 -41 29 -86z m3220 -808 c0 -539 -4 -887 -11 -952 -28
-269 -100 -412 -345 -682 -53 -58 -100 -106 -106 -106 -11 0 -268 211 -268
221 0 4 32 46 71 95 102 128 147 197 185 283 70 162 67 129 71 1109 l4 882
199 0 200 0 0 -850z"/>
</g>
</svg>
